<?xml version="1.0" encoding="utf-8"?>
<!-- Generator: Adobe Illustrator 24.3.0, SVG Export Plug-In . SVG Version: 6.00 Build 0)  -->
<svg version="1.1" id="Layer_1" xmlns="http://www.w3.org/2000/svg" xmlns:xlink="http://www.w3.org/1999/xlink" x="0px" y="0px"
	 viewBox="0 0 100 125" style="enable-background:new 0 0 100 125;" xml:space="preserve">
<style type="text/css">
	.st0{fill:#E5E5D0;}
	.st1{display:none;fill:#FFFFFF;enable-background:new    ;}
	.st2{font-family:'HelveticaNeue-Bold';}
	.st3{font-size:5px;}
</style>
<g>
	<g>
		<g>
			<polygon class="st0" points="66.9,69.6 66.9,78.1 75.6,73 75.6,64.5 			"/>
			<path class="st0" d="M77.1,63.7v9.8c0,0.3-0.1,0.5-0.4,0.6L66.5,80c-0.1,0.1-0.2,0.1-0.4,0.1s-0.3,0-0.4-0.1
				c-0.2-0.1-0.4-0.4-0.4-0.6v-8.9l-3.9,2.2l0,0c-0.1,0.1-0.2,0.1-0.4,0.1l0,0l0,0c-0.1,0-0.2,0-0.3-0.1l0,0l-5.6-3.3v22l32-18.5
				v-15L77.1,63.7z"/>
			<path class="st0" d="M38.8,82.8l14.8,8.6V68.1c0-0.3,0.1-0.5,0.4-0.6s0.5-0.1,0.8,0l4.2,2.4l-26.3-42L6.4,39.5l5.5,3.2
				c0.2,0.1,0.4,0.4,0.4,0.6v24.1L27.1,76V59.6c0-0.3,0.1-0.5,0.4-0.6c0.2-0.1,0.5-0.1,0.8,0l10.2,5.9c0.2,0.1,0.4,0.4,0.4,0.6v17.3
				H38.8z"/>
			<polygon class="st0" points="54.4,13.9 39,20.8 17.6,33.1 33,26.3 			"/>
			<path class="st0" d="M66.2,8.6L34,27.2L61.4,71l32.2-18.6L66.2,8.6z M72.2,44.4l-8.1,4.7l0,0c0,0-0.1,0-0.1,0.1
				c-0.1,0-0.1,0-0.2,0c-0.1,0-0.3,0-0.4-0.1l0,0L63.3,49c-0.1,0-0.1-0.1-0.2-0.2l-7.9-12.6c-0.1-0.1-0.1-0.3-0.1-0.4v-5.3
				c0-0.3,0.1-0.5,0.4-0.6l8.1-4.7c0.2-0.1,0.5-0.1,0.8,0l7.9,4.6c0.2,0.1,0.4,0.4,0.4,0.6v13.3C72.5,44.1,72.4,44.3,72.2,44.4z"/>
			<polygon class="st0" points="56.6,35.6 63,45.8 63,35.5 56.6,31.8 			"/>
			<polygon class="st0" points="64.5,35.5 64.5,47.2 71,43.4 71,31.8 			"/>
			<polygon class="st0" points="57.3,30.5 63.7,34.2 70.3,30.5 63.9,26.8 			"/>
		</g>
		<polygon class="st0" points="37.3,66 28.6,60.9 28.6,76 37.3,71 		"/>
	</g>
</g>
<text transform="matrix(1 0 0 1 0 115)" class="st1 st2 st3">Created by Juan Pablo Bravo</text>
<text transform="matrix(1 0 0 1 0 120)" class="st1 st2 st3">from the Noun Project</text>
</svg>
